<svg width='24' height='24' viewBox='0 0 24 24' xmlns='http://www.w3.org/2000/svg' xmlns:xlink='http://www.w3.org/1999/xlink'><rect width='24' height='24' stroke='none' fill='#000000' opacity='0'/>
    <g transform="matrix(0.25 0 0 0.25 12 12)" >
        <path style="stroke: none; stroke-width: 1; stroke-dasharray: none; stroke-linecap: butt; stroke-dashoffset: 0; stroke-linejoin: miter; stroke-miterlimit: 4; fill: rgb(0,0,0); fill-rule: nonzero; opacity: 1;" transform=" translate(-50, -49.5)" d="M 50 10 C 38.575607 10 28.563163 16.43783 24.591797 26.521484 C 21.63232 26.63309 19.444412 27.922241 18.060547 29.939453 C 16.612452 32.050292 16 34.895971 16 38 L 16 43.5 L 14.5 43.5 C 12.020742 43.5 10 45.520742 10 48 L 10 62 C 10 64.479258 12.020742 66.5 14.5 66.5 L 21.478516 66.5 C 22.334873 68.095926 23.478236 69.270647 24.695312 70.082031 C 27.187105 71.743226 29.833333 72 31 72 C 32 72 33.278558 71.96258 34.515625 73.302734 C 35.752692 74.64289 37 77.628205 37 84 C 37 85.375 37.850712 86.482913 38.919922 87.158203 C 39.989132 87.833494 41.306215 88.21932 42.6875 88.482422 C 45.45007 89.008626 48.5 89 50 89 C 51.5 89 54.54993 89.0086 57.3125 88.482422 C 58.693785 88.21932 60.010868 87.833494 61.080078 87.158203 C 62.149288 86.482913 63 85.375 63 84 C 63 77.628205 64.247308 74.64289 65.484375 73.302734 C 66.721442 71.962578 68 72 69 72 C 70.166667 72 72.812894 71.743226 75.304688 70.082031 C 76.521764 69.270647 77.665127 68.095926 78.521484 66.5 L 85.5 66.5 C 87.979258 66.5 90 64.479258 90 62 L 90 48 C 90 45.520742 87.979258 43.5 85.5 43.5 L 84 43.5 L 84 38 C 84 34.895971 83.387548 32.050292 81.939453 29.939453 C 80.555588 27.922241 78.36768 26.63309 75.408203 26.521484 C 71.436833 16.437828 61.424393 10 50 10 z M 49.5 12.021484 L 49.5 14 L 47.5 14 C 47.31968204171122 13.997449855227257 47.151959317714194 14.092187648084666 47.06105613925674 14.247936424857166 C 46.97015296079929 14.403685201629665 46.97015296079929 14.596314798370337 47.06105613925674 14.752063575142834 C 47.151959317714194 14.907812351915334 47.31968204171122 15.002550144772743 47.5 15 L 49.5 15 L 49.5 18 L 47.5 18 C 47.31968204171122 17.99744985522726 47.151959317714194 18.092187648084668 47.06105613925674 18.247936424857166 C 46.97015296079929 18.403685201629663 46.97015296079929 18.596314798370337 47.06105613925674 18.752063575142834 C 47.151959317714194 18.907812351915336 47.31968204171122 19.00255014477274 47.5 19 L 49.5 19 L 49.5 22 L 47.5 22 C 47.31968204171122 21.99744985522726 47.151959317714194 22.092187648084668 47.06105613925674 22.247936424857166 C 46.97015296079929 22.403685201629663 46.97015296079929 22.596314798370337 47.06105613925674 22.752063575142834 C 47.151959317714194 22.907812351915336 47.31968204171122 23.00255014477274 47.5 23 L 49.5 23 L 49.5 26 L 47.5 26 C 47.31968204171122 25.99744985522726 47.151959317714194 26.092187648084668 47.06105613925674 26.247936424857166 C 46.97015296079929 26.403685201629663 46.97015296079929 26.596314798370337 47.06105613925674 26.752063575142834 C 47.151959317714194 26.907812351915336 47.31968204171122 27.00255014477274 47.5 27 L 49.5 27 L 49.5 30 L 47.5 30 C 47.31968204171122 29.99744985522726 47.151959317714194 30.092187648084668 47.06105613925674 30.247936424857166 C 46.97015296079929 30.403685201629663 46.97015296079929 30.596314798370337 47.06105613925674 30.752063575142834 C 47.151959317714194 30.907812351915336 47.31968204171122 31.00255014477274 47.5 31 L 49.5 31 L 49.5 32.998047 C 45.448091 32.993368 38.844178 32.861499 29.371094 29.072266 C 29.247027944319804 29.022299244345373 29.114199666811658 28.99772588549122 28.980469 29 C 28.435849302494493 29.010692417993834 27.999949515996033 29.455275353811754 28 30 C 28 33.222222 28.946459 38.870753 26.105469 44.552734 C 25.262133 46.239406 24.42229 47.50914 23.626953 48.699219 L 24.992188 32.933594 C 26.62102 20.548393 37.006452 12.239872 49.5 12.021484 z M 50.5 12.021484 C 62.993548 12.239872 73.37898 20.548393 75.007812 32.933594 L 76.373047 48.699219 C 75.57771 47.50914 74.737867 46.239406 73.894531 44.552734 C 71.053541 38.870753 72 33.222222 72 30 C 71.99966553809624 29.668404285706135 71.83499497014924 29.35853455763846 71.5603609118397 29.172706778177865 C 71.28572685353015 28.98687899871727 70.93684247659382 28.949258049095164 70.628906 29.072266 C 61.155822 32.861499 54.551909 32.993368 50.5 32.998047 L 50.5 31 L 52.5 31 C 52.68031795828878 31.00255014477274 52.848040682285806 30.907812351915336 52.93894386074326 30.752063575142834 C 53.02984703920071 30.596314798370337 53.02984703920071 30.403685201629663 52.93894386074326 30.247936424857166 C 52.848040682285806 30.092187648084668 52.68031795828878 29.99744985522726 52.5 30 L 50.5 30 L 50.5 27 L 52.5 27 C 52.68031795828878 27.00255014477274 52.848040682285806 26.907812351915336 52.93894386074326 26.752063575142834 C 53.02984703920071 26.596314798370337 53.02984703920071 26.403685201629663 52.93894386074326 26.247936424857166 C 52.848040682285806 26.092187648084668 52.68031795828878 25.99744985522726 52.5 26 L 50.5 26 L 50.5 23 L 52.5 23 C 52.68031795828878 23.00255014477274 52.848040682285806 22.907812351915336 52.93894386074326 22.752063575142834 C 53.02984703920071 22.596314798370337 53.02984703920071 22.403685201629663 52.93894386074326 22.247936424857166 C 52.848040682285806 22.092187648084668 52.68031795828878 21.99744985522726 52.5 22 L 50.5 22 L 50.5 19 L 52.5 19 C 52.68031795828878 19.00255014477274 52.848040682285806 18.907812351915336 52.93894386074326 18.752063575142834 C 53.02984703920071 18.596314798370337 53.02984703920071 18.403685201629663 52.93894386074326 18.247936424857166 C 52.848040682285806 18.092187648084668 52.68031795828878 17.99744985522726 52.5 18 L 50.5 18 L 50.5 15 L 52.5 15 C 52.68031795828878 15.002550144772743 52.848040682285806 14.907812351915334 52.93894386074326 14.752063575142834 C 53.02984703920071 14.596314798370335 53.02984703920071 14.403685201629665 52.93894386074326 14.247936424857166 C 52.848040682285806 14.092187648084666 52.68031795828878 13.997449855227257 52.5 14 L 50.5 14 L 50.5 12.021484 z M 24.21875 27.539062 C 23.656842 29.166174 23.243594 30.879058 23.007812 32.671875 C 23.006172556298317 32.6868177416775 23.004870225370105 32.701795547606075 23.003906 32.716797 L 21.267578 52.763672 C 20.493626 54.585724 20 56.802564 20 60 C 20 60.894875 20.069662 61.724063 20.1875 62.5 L 15.5 62.5 C 14.664985 62.5 14 61.835015 14 61 L 14 57.5 C 14.002117288398537 57.36468191098846 13.949295996416247 57.23428410438156 13.853599946017345 57.13858805398265 C 13.757903895618446 57.04289200358375 13.627506089011542 56.99007071160146 13.492188 56.992188 C 13.359578813218716 56.99425696181516 13.233223191175849 57.04892148251605 13.1409194123194 57.14415534955192 C 13.048615633462951 57.239389216587796 12.99792519137388 57.36739090456929 13 57.5 L 13 61 C 13 62.374985 14.125015 63.5 15.5 63.5 L 20.369141 63.5 C 20.533955 64.228994 20.763094 64.882298 21.019531 65.5 L 14.5 65.5 C 12.561258 65.5 11 63.938742 11 62 L 11 48 C 11 46.061258 12.561258 44.5 14.5 44.5 L 16.5 44.5 C 16.77613093810423 44.49997239104732 16.999972391047326 44.27613093810423 17 44 L 17 38 C 17 35.029029 17.60161 32.374318 18.884766 30.503906 C 20.047778 28.808622 21.750618 27.728296 24.21875 27.539062 z M 75.78125 27.539062 C 78.249382 27.728296 79.952222 28.808622 81.115234 30.503906 C 82.39839 32.374318 83 35.029029 83 38 L 83 44 C 83.00002760895268 44.27613093810423 83.22386906189577 44.49997239104732 83.5 44.5 L 85.5 44.5 C 87.438742 44.5 89 46.061258 89 48 L 89 62 C 89 63.938742 87.438742 65.5 85.5 65.5 L 78.980469 65.5 C 79.236906 64.882298 79.466045 64.228994 79.630859 63.5 L 84.5 63.5 C 85.874985 63.5 87 62.374985 87 61 L 87 57.5 C 87.00211728839854 57.36468191098846 86.94929599641624 57.23428410438155 86.85359994601734 57.13858805398265 C 86.75790389561844 57.04289200358375 86.62750608901153 56.99007071160146 86.492188 56.992188 C 86.35957881321872 56.99425696181516 86.23322319117585 57.04892148251605 86.1409194123194 57.14415534955192 C 86.04861563346296 57.239389216587796 85.99792519137388 57.36739090456929 86 57.5 L 86 61 C 86 61.835015 85.335015 62.5 84.5 62.5 L 79.8125 62.5 C 79.930338 61.724063 80 60.894875 80 60 C 80 56.802564 79.506374 54.585724 78.732422 52.763672 L 76.996094 32.716797 C 76.99512977462989 32.701795547606075 76.99382744370169 32.6868177416775 76.992188 32.671875 C 76.756405 30.879058 76.343159 29.166174 75.78125 27.539062 z M 30.029297 31.394531 C 39.398523 34.880662 46.198423 35 50 35 C 53.801577 35 60.601477 34.880662 69.970703 31.394531 C 69.821825 34.525501 69.290817 39.817963 72.105469 45.447266 C 73.655159 48.546646 75.192917 50.354031 76.253906 52.240234 C 76.448388 52.58598 76.62565 52.940526 76.792969 53.304688 C 76.81889259821513 53.39350817323955 76.85701653569832 53.47830121373797 76.90625 53.556641 C 76.90754512046901 53.55859857761328 76.90884712853736 53.56055158971581 76.910156 53.5625 C 77.58695 55.130928 78 57.002447 78 60 C 78 64.733333 76.20352 67.079164 74.195312 68.417969 C 72.187106 69.756774 69.833333 70 69 70 C 68 70 65.778558 70.037422 64.015625 71.947266 C 62.252692 73.85711 61 77.371795 61 84 C 61 84.625 60.725712 85.017087 60.013672 85.466797 C 59.620171 85.715323 59.094829 85.933812 58.5 86.123047 L 58.5 81.5 C 58.50211728839854 81.36468191098847 58.44929599641625 81.23428410438156 58.35359994601735 81.13858805398266 C 58.25790389561845 81.04289200358376 58.12750608901154 80.99007071160146 57.992188 80.992188 C 57.85957881321872 80.99425696181515 57.733223191175846 81.04892148251605 57.6409194123194 81.14415534955192 C 57.54861563346295 81.2393892165878 57.49792519137388 81.36739090456929 57.5 81.5 L 57.5 86.392578 C 57.313637 86.435414 57.130897 86.480741 56.9375 86.517578 C 56.148445 86.667874 55.321108 86.760779 54.5 86.832031 L 54.5 82.5 C 54.50211728839854 82.36468191098847 54.44929599641625 82.23428410438156 54.35359994601735 82.13858805398266 C 54.25790389561845 82.04289200358376 54.12750608901154 81.99007071160146 53.992188 81.992188 C 53.85957881321872 81.99425696181515 53.733223191175846 82.04892148251605 53.6409194123194 82.14415534955192 C 53.54861563346295 82.2393892165878 53.49792519137388 82.36739090456929 53.5 82.5 L 53.5 86.90625 C 52.338986 86.974877 51.306383 86.99556 50.5 86.998047 L 50.5 83.5 C 50.50211728839854 83.36468191098847 50.44929599641625 83.23428410438156 50.35359994601735 83.13858805398266 C 50.25790389561845 83.04289200358376 50.12750608901154 82.99007071160146 49.992188 82.992188 C 49.85957881321872 82.99425696181515 49.733223191175846 83.04892148251605 49.6409194123194 83.14415534955192 C 49.54861563346295 83.2393892165878 49.49792519137388 83.36739090456929 49.5 83.5 L 49.5 86.998047 C 48.693617 86.99556 47.661014 86.974877 46.5 86.90625 L 46.5 82.5 C 46.50211728839854 82.36468191098847 46.44929599641625 82.23428410438156 46.35359994601735 82.13858805398266 C 46.25790389561845 82.04289200358376 46.12750608901154 81.99007071160146 45.992188 81.992188 C 45.85957881321872 81.99425696181515 45.733223191175846 82.04892148251605 45.6409194123194 82.14415534955192 C 45.54861563346295 82.2393892165878 45.49792519137388 82.36739090456929 45.5 82.5 L 45.5 86.832031 C 44.678892 86.760779 43.851555 86.667874 43.0625 86.517578 C 42.869103 86.480741 42.686363 86.435414 42.5 86.392578 L 42.5 81.5 C 42.50211728839854 81.36468191098847 42.44929599641625 81.23428410438156 42.35359994601735 81.13858805398266 C 42.25790389561845 81.04289200358376 42.12750608901154 80.99007071160146 41.992188 80.992188 C 41.85957881321872 80.99425696181515 41.733223191175846 81.04892148251605 41.6409194123194 81.14415534955192 C 41.54861563346295 81.2393892165878 41.49792519137388 81.36739090456929 41.5 81.5 L 41.5 86.123047 C 40.905171 85.933812 40.379829 85.715323 39.986328 85.466797 C 39.274288 85.017087 39 84.625 39 84 C 39 77.371795 37.747308 73.85711 35.984375 71.947266 C 34.221442 70.037422 32 70 31 70 C 30.166667 70 27.812895 69.756774 25.804688 68.417969 C 23.79648 67.079164 22 64.733333 22 60 C 22 57.003495 22.413473 55.132547 23.089844 53.564453 C 23.14008886713716 53.485006061309775 23.178881967647268 53.398872073915285 23.205078 53.308594 C 23.372897 52.943005 23.550906 52.587234 23.746094 52.240234 C 24.807083 50.354031 26.344841 48.546646 27.894531 45.447266 C 30.709183 39.817963 30.178175 34.525501 30.029297 31.394531 z M 32.660156 34.507812 C 32.409123433412766 34.50276488745264 32.19327245220606 34.684654992401406 32.15568825572942 34.93290940023265 C 32.11810405925279 35.1811638080639 32.27044201616553 35.418795462625795 32.511719 35.488281 C 40.6293 37.998562 46.586 38 50 38 C 51.621 38 53.821654 38.000056 56.548828 37.730469 C 56.73248169924088 37.72025445179799 56.89570117402663 37.61003911795704 56.97379824535828 37.443504239660484 C 57.05189531668993 37.276969361363925 57.032260346001344 37.08100384223092 56.92267518959497 36.93327398155537 C 56.813090033188594 36.785544120879806 56.631248430290945 36.709902543565306 56.449219 36.736328 C 53.774393 37.000741 51.621 37 50 37 C 46.586 37 40.793059 37.0029 32.806641 34.533203 C 32.75935063296354 34.51748751780169 32.709976747317484 34.508929287741005 32.660156 34.507812 z M 67.326172 34.507812 C 67.28095558644831 34.51022336952886 67.23627620066745 34.51876511080691 67.193359 34.533203 C 65.114494 35.175906 63.181915 35.650201 61.402344 36.001953 C 61.22307083528447 36.032641553253505 61.07459757667778 36.15825018840943 61.01462906974565 36.32996050570064 C 60.95466056281352 36.501670822991855 60.99265466416284 36.69240174866905 61.11384478369284 36.82802479175621 C 61.23503490322284 36.96364783484337 61.42030769575746 37.02277338002857 61.597656 36.982422 C 63.410085 36.624174 65.375147 36.141579 67.488281 35.488281 C 67.7330791979572 35.41885808754274 67.8867099521194 35.176675809532945 67.84520285961374 34.925632267953276 C 67.80369576710807 34.6745887263736 67.5802880372419 34.49474532048251 67.326172 34.507812 z M 15.5 46.5 C 14.125015 46.5 13 47.625015 13 49 L 13 49.5 C 12.997449855227257 49.68031795828878 13.092187648084666 49.848040682285806 13.247936424857166 49.93894386074326 C 13.403685201629665 50.02984703920071 13.596314798370335 50.02984703920071 13.752063575142834 49.93894386074326 C 13.907812351915334 49.848040682285806 14.002550144772743 49.68031795828878 14 49.5 L 14 49 C 14 48.164985 14.664985 47.5 15.5 47.5 L 16.5 47.5 C 16.680317958288786 47.50255014477274 16.848040682285802 47.40781235191533 16.938943860743258 47.252063575142834 C 17.029847039200714 47.09631479837034 17.029847039200714 46.90368520162966 16.938943860743258 46.747936424857166 C 16.848040682285802 46.59218764808467 16.680317958288786 46.49744985522726 16.5 46.5 L 15.5 46.5 z M 34.5 46.5 C 32.166667 46.5 28 48.809524 28 56 C 28 59.619048 29.351846 61.596357 30.998047 62.556641 C 32.644248 63.516924 34.5 63.5 35.5 63.5 C 38.2 63.5 40.681306 61.907667 42.496094 59.898438 C 44.310882 57.889208 45.5 55.464286 45.5 53.5 C 45.5 51.488095 43.966534 49.746182 41.880859 48.507812 C 39.795184 47.269444 37.1 46.5 34.5 46.5 z M 65.5 46.5 C 62.9 46.5 60.204816 47.269444 58.119141 48.507812 C 56.033466 49.746182 54.5 51.488095 54.5 53.5 C 54.5 55.464286 55.689118 57.889207 57.503906 59.898438 C 59.318694 61.907666 61.8 63.5 64.5 63.5 C 65.5 63.5 67.355752 63.51692 69.001953 62.556641 C 70.648154 61.596357 72 59.619048 72 56 C 72 48.809524 67.833333 46.5 65.5 46.5 z M 83.5 46.5 C 83.31968204171122 46.49744985522726 83.1519593177142 46.59218764808467 83.06105613925673 46.747936424857166 C 82.97015296079928 46.90368520162966 82.97015296079928 47.09631479837034 83.06105613925673 47.252063575142834 C 83.1519593177142 47.40781235191533 83.31968204171122 47.50255014477274 83.5 47.5 L 84.5 47.5 C 85.335015 47.5 86 48.164985 86 49 L 86 49.5 C 85.99744985522726 49.68031795828878 86.09218764808466 49.848040682285806 86.24793642485716 49.93894386074326 C 86.40368520162967 50.02984703920071 86.59631479837033 50.02984703920071 86.75206357514284 49.93894386074326 C 86.90781235191534 49.848040682285806 87.00255014477274 49.68031795828878 87 49.5 L 87 49 C 87 47.625015 85.874985 46.5 84.5 46.5 L 83.5 46.5 z M 34.5 47.5 C 36.9 47.5 39.454816 48.230556 41.369141 49.367188 C 43.283466 50.503818 44.5 52.011905 44.5 53.5 C 44.5 55.035714 43.439118 57.360793 41.753906 59.226562 C 40.068694 61.092334 37.8 62.5 35.5 62.5 C 34.5 62.5 32.855752 62.48308 31.501953 61.693359 C 30.148154 60.903643 29 59.380952 29 56 C 29 49.190476 32.833333 47.5 34.5 47.5 z M 65.5 47.5 C 67.166667 47.5 71 49.190476 71 56 C 71 59.380952 69.851846 60.903643 68.498047 61.693359 C 67.144248 62.483076 65.5 62.5 64.5 62.5 C 62.2 62.5 59.931306 61.092334 58.246094 59.226562 C 56.560882 57.360792 55.5 55.035714 55.5 53.5 C 55.5 52.011905 56.716534 50.503818 58.630859 49.367188 C 60.545184 48.230556 63.1 47.5 65.5 47.5 z M 13.492188 51.992188 C 13.359578813218716 51.99425696181516 13.233223191175849 52.04892148251605 13.1409194123194 52.14415534955192 C 13.048615633462951 52.239389216587796 12.99792519137388 52.36739090456929 13 52.5 L 13 55.5 C 12.997449855227257 55.68031795828878 13.092187648084666 55.848040682285806 13.247936424857166 55.93894386074326 C 13.403685201629665 56.02984703920071 13.596314798370335 56.02984703920071 13.752063575142834 55.93894386074326 C 13.907812351915334 55.848040682285806 14.002550144772743 55.68031795828878 14 55.5 L 14 52.5 C 14.002117288398537 52.36468191098846 13.949295996416247 52.23428410438156 13.853599946017345 52.13858805398265 C 13.757903895618446 52.04289200358375 13.627506089011542 51.99007071160146 13.492188 51.992188 z M 86.492188 51.992188 C 86.35957881321872 51.99425696181516 86.23322319117585 52.04892148251605 86.1409194123194 52.14415534955192 C 86.04861563346296 52.239389216587796 85.99792519137388 52.36739090456929 86 52.5 L 86 55.5 C 85.99744985522726 55.68031795828878 86.09218764808466 55.848040682285806 86.24793642485716 55.93894386074326 C 86.40368520162967 56.02984703920071 86.59631479837033 56.02984703920071 86.75206357514284 55.93894386074326 C 86.90781235191534 55.848040682285806 87.00255014477274 55.68031795828878 87 55.5 L 87 52.5 C 87.00211728839854 52.36468191098846 86.94929599641624 52.23428410438155 86.85359994601734 52.13858805398265 C 86.75790389561844 52.04289200358375 86.62750608901153 51.99007071160146 86.492188 51.992188 z M 49.970703 58.5 C 49.785398552955016 58.51105459499088 49.62146737105897 58.623851442264254 49.544922 58.792969 L 44.751953 69.298828 C 44.749277402275425 69.30334404863906 44.74667307946786 69.30790194692695 44.744141 69.3125 C 44.550747 69.775746 44.604128 70.306812 44.880859 70.722656 L 46.029297 72.445312 C 46.485128 73.130549 47.424843 73.318179 48.109375 72.861328 L 49.722656 71.785156 C 49.89217 71.672147 50.10783 71.672147 50.277344 71.785156 L 51.888672 72.861328 C 51.88932299937936 72.86132927127709 51.88997400062064 72.86132927127709 51.890625 72.861328 C 52.574991 73.316581 53.511935 73.128303 53.96875 72.445312 C 53.96940099937936 72.44531327127709 53.97005200062064 72.44531327127709 53.970703 72.445312 L 55.117188 70.722656 C 55.11783899937936 70.72265727127709 55.11849000062064 70.72265727127709 55.119141 70.722656 C 55.396178 70.306351 55.447944 69.775784 55.253906 69.3125 C 55.25202089315125 69.30791387007605 55.250067677118494 69.30335603262944 55.248047 69.298828 L 50.455078 58.792969 C 50.36975827308907 58.60452620514163 50.177216443685474 58.488069354109804 49.970703 58.5 z M 50 60.205078 L 54.332031 69.699219 C 54.395991 69.851934 54.378116 70.028274 54.285156 70.167969 L 53.138672 71.890625 C 52.981911 72.125 52.680664 72.184451 52.445312 72.029297 L 50.832031 70.953125 C 50.329545 70.618134 49.670455 70.618134 49.167969 70.953125 L 47.554688 72.029297 C 47.31922 72.186446 47.017497 72.125387 46.861328 71.890625 L 45.712891 70.167969 C 45.619621 70.027813 45.603361 69.853972 45.667969 69.699219 L 45.660156 69.712891 L 50 60.205078 z" stroke-linecap="round" />
    </g>
</svg>